<svg width="1170" height="312" viewBox="0 0 1170 312" fill="none" xmlns="http://www.w3.org/2000/svg">
<rect width="1170" height="312" rx="20" fill="#FF7A50"/>
<mask id="mask0_24_57" style="mask-type:alpha" maskUnits="userSpaceOnUse" x="0" y="0" width="1170" height="312">
<rect opacity="0.3" width="1170" height="312" fill="#1C9DFB"/>
</mask>
<g mask="url(#mask0_24_57)">
<mask id="mask1_24_57" style="mask-type:alpha" maskUnits="userSpaceOnUse" x="0" y="0" width="585" height="334">
<rect width="585" height="333.45" transform="matrix(1 0 0 -1 0 333.45)" fill="white"/>
</mask>
<g mask="url(#mask1_24_57)">
<path opacity="0.1" d="M419.535 20.813L584.976 222.428V312.716L344.211 20.813H419.535Z" fill="url(#paint0_linear_24_57)"/>
<path opacity="0.05" d="M132.886 431.775L-38.2896 223.172V129.755L210.821 431.775H132.886Z" fill="url(#paint1_linear_24_57)"/>
<path opacity="0.12" d="M0.197571 -17.241H60.853L414.277 384.536H171.373L0.197571 175.933V-17.241Z" fill="url(#paint2_linear_24_57)"/>
</g>
<mask id="mask2_24_57" style="mask-type:alpha" maskUnits="userSpaceOnUse" x="585" y="0" width="585" height="334">
<rect x="1170" y="333.45" width="585" height="333.45" transform="rotate(180 1170 333.45)" fill="white"/>
</mask>
<g mask="url(#mask2_24_57)">
<path opacity="0.1" d="M750.465 20.813L585.024 222.428V312.716L825.789 20.813H750.465Z" fill="url(#paint3_linear_24_57)"/>
<path opacity="0.05" d="M1037.11 431.775L1208.29 223.172V129.755L959.179 431.775H1037.11Z" fill="url(#paint4_linear_24_57)"/>
<path opacity="0.12" d="M1169.8 -17.241H1109.15L755.724 384.536H998.627L1169.8 175.933V-17.241Z" fill="url(#paint5_linear_24_57)"/>
</g>
<rect x="0.202778" y="1.97067" width="14.0009" height="13.551" rx="2.5" transform="matrix(0.814598 0.580026 -0.679412 0.733757 854.243 216.879)" stroke="white" stroke-width="3"/>
<rect x="0.202778" y="1.97067" width="14.0009" height="13.551" rx="2.5" transform="matrix(0.814598 0.580026 -0.679412 0.733757 1005.17 158.828)" stroke="white" stroke-width="3"/>
<rect x="0.202778" y="1.97067" width="14.0009" height="13.551" rx="2.5" transform="matrix(0.814598 0.580026 -0.679412 0.733757 560.89 298.126)" stroke="#FDB735" stroke-width="3"/>
<rect x="0.135185" y="1.31378" width="9.88513" height="9.57062" rx="2" transform="matrix(0.814598 0.580026 -0.679412 0.733757 651.196 106.546)" stroke="white" stroke-width="2"/>
<path d="M902.308 307.234C900.85 307.846 899.633 308.828 898.812 310.055C897.991 311.282 897.603 312.698 897.696 314.125C897.79 315.552 898.36 316.925 899.337 318.072C900.313 319.218 901.651 320.086 903.181 320.565C904.711 321.045 906.364 321.114 907.932 320.765C909.5 320.416 910.912 319.664 911.99 318.603C913.068 317.543 913.762 316.223 913.986 314.809" stroke="#FDB735" stroke-width="3" stroke-linecap="round"/>
</g>
<defs>
<linearGradient id="paint0_linear_24_57" x1="714.029" y1="392.266" x2="304.769" y2="137.55" gradientUnits="userSpaceOnUse">
<stop stop-color="white"/>
<stop offset="0.775314" stop-color="white"/>
<stop offset="1" stop-color="white" stop-opacity="0"/>
</linearGradient>
<linearGradient id="paint1_linear_24_57" x1="-171.815" y1="47.4473" x2="251.63" y2="310.992" gradientUnits="userSpaceOnUse">
<stop stop-color="white"/>
<stop offset="0.775314" stop-color="white"/>
<stop offset="1" stop-color="white" stop-opacity="0"/>
</linearGradient>
<linearGradient id="paint2_linear_24_57" x1="-99.2492" y1="-124.483" x2="203.367" y2="376.066" gradientUnits="userSpaceOnUse">
<stop stop-color="white"/>
<stop offset="0.833345" stop-color="white"/>
<stop offset="1" stop-color="white" stop-opacity="0"/>
</linearGradient>
<linearGradient id="paint3_linear_24_57" x1="455.971" y1="392.266" x2="865.231" y2="137.55" gradientUnits="userSpaceOnUse">
<stop stop-color="white"/>
<stop offset="0.775314" stop-color="white"/>
<stop offset="1" stop-color="white" stop-opacity="0"/>
</linearGradient>
<linearGradient id="paint4_linear_24_57" x1="1341.82" y1="47.4473" x2="918.37" y2="310.992" gradientUnits="userSpaceOnUse">
<stop stop-color="white"/>
<stop offset="0.775314" stop-color="white"/>
<stop offset="1" stop-color="white" stop-opacity="0"/>
</linearGradient>
<linearGradient id="paint5_linear_24_57" x1="1269.25" y1="-124.483" x2="966.633" y2="376.066" gradientUnits="userSpaceOnUse">
<stop stop-color="white"/>
<stop offset="0.833345" stop-color="white"/>
<stop offset="1" stop-color="white" stop-opacity="0"/>
</linearGradient>
</defs>
</svg>
