<svg width="21" height="20" viewBox="0 0 21 20" fill="none" xmlns="http://www.w3.org/2000/svg">
<path d="M1 0.965088L3.08 1.32091L4.04301 12.6608C4.12001 13.5869 4.90301 14.2975 5.84301 14.2946H16.752C17.649 14.2966 18.41 13.6442 18.537 12.7665L19.486 6.28463C19.592 5.56013 19.083 4.88803 18.351 4.78326C18.287 4.77436 3.414 4.76942 3.414 4.76942" stroke="#FF7A50" stroke-width="1.5" stroke-linecap="round" stroke-linejoin="round"/>
<path d="M12.375 8.42267H15.1479" stroke="#FF7A50" stroke-width="1.5" stroke-linecap="round" stroke-linejoin="round"/>
<path fill-rule="evenodd" clip-rule="evenodd" d="M5.4043 17.7209C5.70527 17.7209 5.94824 17.9622 5.94824 18.2589C5.94824 18.5566 5.70527 18.7979 5.4043 18.7979C5.10333 18.7979 4.86035 18.5566 4.86035 18.2589C4.86035 17.9622 5.10333 17.7209 5.4043 17.7209Z" fill="#363853" stroke="#FF7A50" stroke-width="1.5" stroke-linecap="round" stroke-linejoin="round"/>
<path fill-rule="evenodd" clip-rule="evenodd" d="M16.6846 17.7209C16.9856 17.7209 17.2296 17.9622 17.2296 18.2589C17.2296 18.5566 16.9856 18.7979 16.6846 18.7979C16.3836 18.7979 16.1406 18.5566 16.1406 18.2589C16.1406 17.9622 16.3836 17.7209 16.6846 17.7209Z" fill="#363853" stroke="#FF7A50" stroke-width="1.5" stroke-linecap="round" stroke-linejoin="round"/>
</svg>
