<svg width="44" height="44" viewBox="0 0 44 44" fill="none" xmlns="http://www.w3.org/2000/svg">
<g clip-path="url(#clip0_55_32)">
<path d="M41.8 6.59989H40.3333V5.13319C40.3333 3.91821 39.3483 2.93319 38.1333 2.93319H36.3865L35.3254 0.810968C35.0787 0.312358 34.5697 -0.00234463 34.0135 -0.00011025H33C32.19 -0.00011025 31.5333 0.656538 31.5333 1.46658V2.93328H23.4666C22.2515 2.93328 21.2666 3.91821 21.2666 5.13328V6.59989H19.8C18.585 6.59989 17.6 7.58491 17.6 8.79989V10.2666C17.6 11.0766 18.2567 11.7333 19.0667 11.7333H19.1445L20.0025 19.31L16.4692 18.4799C16.291 18.2057 16.1025 17.9336 15.8929 17.6666L14.6462 12.3008C14.5692 11.969 14.274 11.734 13.9334 11.7332H9.71962C7.73154 9.98127 5.38193 9.18927 3.60947 9.71066L2.53293 8.53735C2.1261 8.09323 1.48698 7.94722 0.9277 8.17066C0.367474 8.38653 -0.00154203 8.92553 4.84458e-06 9.52589V41.8146C0.00163766 43.0208 0.979091 43.9983 2.18531 43.9999H38.1333C38.5061 43.9996 38.8193 43.7198 38.8615 43.3494L42.4542 11.7332H42.5334C43.3434 11.7332 44.0001 11.0765 44.0001 10.2665V8.79989C44 7.58491 43.0151 6.59989 41.8 6.59989ZM33 1.46658H34.0135L34.7468 2.93328H33V1.46658ZM22.7333 5.13319C22.7333 4.72817 23.0617 4.39989 23.4666 4.39989H38.1333C38.5383 4.39989 38.8666 4.72817 38.8666 5.13319V6.59989H22.7333V5.13319ZM20.68 20.9732L20.7262 20.982L21.3188 21.1227L21.7162 25.2844C20.5645 24.469 19.1864 24.0346 17.7753 24.0421C18.047 22.7482 17.9032 21.4017 17.3646 20.1943L20.68 20.9732ZM22.1129 27.4596L22.1225 27.4677C22.3881 27.7134 22.6403 27.9734 22.8778 28.2464C23.7502 29.2199 24.3917 30.3778 24.7544 31.6337C24.8783 32.0711 24.9422 32.5233 24.9443 32.9779L18.095 25.5081C19.6184 25.6787 21.037 26.3677 22.1129 27.4596ZM14.3851 18.1397V18.1382C15.9676 19.9569 16.7046 22.1415 16.3549 23.6096L8.8917 15.4733C10.3972 15.1367 12.6867 16.1941 14.3851 18.1397ZM13.3467 13.1999L13.9334 15.6969C13.344 15.237 12.7017 14.8495 12.0202 14.5427C11.7429 14.0738 11.433 13.6251 11.0925 13.1999H13.3467ZM9.66024 13.7455H9.66316C9.724 13.8152 9.77393 13.8922 9.83254 13.9655C9.1441 13.9021 8.45093 14.0185 7.821 14.3036L4.80623 11.016C6.28032 11.0373 8.20386 12.0742 9.66024 13.7455ZM30.7371 42.1025C30.6236 42.3636 30.3661 42.5328 30.0813 42.5333H23.4666H2.18531C1.78836 42.5333 1.46661 42.2115 1.46661 41.8146L1.45338 9.53328L16.1722 25.5815V25.5852L24.8167 35.0093L24.8262 35.0203L29.568 40.1917C29.5848 40.2137 29.6025 40.2357 29.6215 40.257L30.6049 41.3291C30.7988 41.5377 30.8506 41.8413 30.7371 42.1025ZM26.1976 34.3448C26.3319 33.9069 26.4001 33.4513 26.4 32.9933C26.7853 33.3182 27.1442 33.673 27.4736 34.0544C27.8833 34.5225 28.247 35.0289 28.5597 35.5666C28.9879 36.2867 29.2907 37.0742 29.4551 37.8957L26.1976 34.3448ZM37.4785 42.5333H32.1362C32.4108 41.7734 32.2366 40.9238 31.6852 40.3333L30.9467 39.5266C31.0916 38.299 30.8936 37.0552 30.3747 35.9333H38.2287L37.4785 42.5333ZM38.3952 34.4666H29.5952C29.2941 33.9836 28.9568 33.5242 28.5861 33.0923C27.8644 32.2546 27.0171 31.534 26.0744 30.956C25.6435 29.5974 24.9311 28.3447 23.9837 27.2798C23.7637 27.0305 23.5437 26.798 23.3127 26.5743L22.7334 20.4635C22.7036 20.1509 22.478 19.892 22.1724 19.8197L21.5226 19.6657L21.3686 18.3332H40.2292L38.3952 34.4666ZM40.3957 16.8666H21.2022L20.6214 11.7333H40.9787L40.3957 16.8666ZM42.5333 10.2666H19.0667V8.79989C19.0667 8.39487 19.395 8.06658 19.8 8.06658H41.8C42.205 8.06658 42.5333 8.39487 42.5333 8.79989V10.2666Z" fill="white"/>
<path d="M31.1007 32.2667C31.1424 32.2667 31.1835 32.2608 31.2246 32.2594C31.2356 32.2594 31.2466 32.2667 31.2576 32.2667C31.2944 32.2644 31.3309 32.2593 31.3668 32.2513C32.5148 32.1738 33.5725 31.6017 34.2657 30.6834C35.1896 29.3853 35.4537 27.7299 34.9799 26.2087C34.878 25.8288 34.7848 25.4563 34.6947 25.0962C34.1227 22.8031 33.5764 20.6404 31.2597 20.543C31.2363 20.543 31.2143 20.5386 31.1908 20.5386C31.1674 20.5386 31.1329 20.5334 31.1006 20.5334C28.509 20.5334 26.3999 23.1654 26.3999 26.4001C26.3999 29.6349 28.5091 32.2667 31.1007 32.2667ZM31.6683 22.11C32.4265 22.4077 32.7602 23.4014 33.2721 25.451C33.3638 25.8177 33.4591 26.202 33.5654 26.5914C33.9164 27.6723 33.7449 28.8549 33.1011 29.7916C32.8675 30.0981 32.5683 30.3486 32.2255 30.5249C32.2008 29.2643 31.9525 28.0181 31.4922 26.8443C31.4189 26.6155 31.3455 26.3947 31.281 26.1843C30.8543 24.7962 31.3544 22.9973 31.6683 22.11ZM30.0923 22.22C29.6151 23.6363 29.5417 25.1577 29.8804 26.6134C29.9478 26.8334 30.0226 27.0614 30.1004 27.2983C30.4671 28.4174 30.9071 29.7704 30.7274 30.7662C29.1199 30.5154 27.8666 28.6542 27.8666 26.4C27.8667 24.453 28.8017 22.8 30.0923 22.22Z" fill="white"/>
<path d="M3.88152 38.563L3.36305 39.0815C3.17244 39.2657 3.09596 39.5383 3.16308 39.7947C3.23019 40.0511 3.43043 40.2514 3.68678 40.3184C3.94322 40.3855 4.21581 40.309 4.39998 40.1184L4.91844 39.6C5.19636 39.3122 5.19241 38.8548 4.9095 38.572C4.62668 38.2891 4.16923 38.2851 3.88152 38.563Z" fill="white"/>
<path d="M10.893 33.6264C11.1795 33.3399 11.1795 32.8753 10.893 32.5887C10.6065 32.3021 10.1419 32.3021 9.85532 32.5887L9.33686 33.1071C9.15149 33.2923 9.07904 33.5624 9.14676 33.8155C9.21448 34.0687 9.41214 34.2664 9.66522 34.3343C9.91831 34.4022 10.1884 34.3299 10.3738 34.1447L10.893 33.6264Z" fill="white"/>
<path d="M4.40007 31.7482L3.88161 32.2667C3.691 32.4509 3.61452 32.7234 3.68163 32.9799C3.74875 33.2362 3.94898 33.4365 4.20534 33.5036C4.46177 33.5707 4.73437 33.4942 4.91853 33.3036L5.43699 32.7851C5.71491 32.4974 5.71096 32.04 5.42806 31.7572C5.14523 31.4743 4.68779 31.4703 4.40007 31.7482Z" fill="white"/>
<path d="M4.40007 26.6149L3.88161 27.1333C3.691 27.3175 3.61452 27.5901 3.68163 27.8465C3.74875 28.1029 3.94898 28.3031 4.20534 28.3702C4.46177 28.4373 4.73437 28.3609 4.91853 28.1702L5.43699 27.6518C5.71491 27.3641 5.71096 26.9066 5.42806 26.6238C5.14523 26.341 4.68779 26.337 4.40007 26.6149Z" fill="white"/>
<path d="M11.0002 38.563L10.4817 39.0815C10.2911 39.2657 10.2146 39.5383 10.2817 39.7947C10.3488 40.0511 10.5491 40.2514 10.8054 40.3184C11.0619 40.3855 11.3345 40.309 11.5186 40.1184L12.0371 39.6C12.315 39.3122 12.3111 38.8548 12.0282 38.572C11.7453 38.2891 11.2879 38.2851 11.0002 38.563Z" fill="white"/>
<path d="M16.3481 38.5631L15.8296 39.0816C15.639 39.2658 15.5625 39.5384 15.6296 39.7948C15.6967 40.0512 15.897 40.2515 16.1533 40.3185C16.4098 40.3856 16.6824 40.3091 16.8665 40.1185L17.385 39.6001C17.6629 39.3123 17.659 38.8549 17.376 38.5721C17.0931 38.2893 16.6358 38.2852 16.3481 38.5631Z" fill="white"/>
</g>
<defs>
<clipPath id="clip0_55_32">
<rect width="44" height="44" fill="white"/>
</clipPath>
</defs>
</svg>
